<?xml version="1.0" encoding="UTF-8" standalone="no"?>
<!DOCTYPE svg PUBLIC "-//W3C//DTD SVG 1.1//EN"
 "http://www.w3.org/Graphics/SVG/1.1/DTD/svg11.dtd">
<!-- Generated by graphviz version 2.47.0 (20210316.0004)
 -->
<!-- Title: dependencies Pages: 1 -->
<svg width="3791pt" height="284pt"
 viewBox="0.00 0.00 3791.00 284.00" xmlns="http://www.w3.org/2000/svg" xmlns:xlink="http://www.w3.org/1999/xlink">
<g id="graph0" class="graph" transform="scale(1 1) rotate(0) translate(4 280)">
<title>dependencies</title>
<polygon fill="white" stroke="transparent" points="-4,4 -4,-280 3787,-280 3787,4 -4,4"/>
<text text-anchor="start" x="1870.51" y="-42.4" font-family="Times-12" font-weight="bold" font-size="14.00">Legend</text>
<polygon fill="#ffffb3" stroke="transparent" points="1657.5,-10 1657.5,-30 1677.5,-30 1677.5,-10 1657.5,-10"/>
<text text-anchor="start" x="1681.13" y="-15.4" font-family="Times-12" font-size="14.00"> &#160;Declarations</text>
<polygon fill="#8dd3c7" stroke="transparent" points="1770.5,-10 1770.5,-30 1790.5,-30 1790.5,-10 1770.5,-10"/>
<text text-anchor="start" x="1794.23" y="-15.4" font-family="Times-12" font-size="14.00"> &#160;Module</text>
<polygon fill="#80b1d3" stroke="transparent" points="1856.5,-10 1856.5,-30 1876.5,-30 1876.5,-10 1856.5,-10"/>
<text text-anchor="start" x="1880.28" y="-15.4" font-family="Times-12" font-size="14.00"> &#160;Bootstrap</text>
<polygon fill="#fdb462" stroke="transparent" points="1953.5,-10 1953.5,-30 1973.5,-30 1973.5,-10 1953.5,-10"/>
<text text-anchor="start" x="1977.17" y="-15.4" font-family="Times-12" font-size="14.00"> &#160;Providers</text>
<polygon fill="#fb8072" stroke="transparent" points="2049.5,-10 2049.5,-30 2069.5,-30 2069.5,-10 2049.5,-10"/>
<text text-anchor="start" x="2073.23" y="-15.4" font-family="Times-12" font-size="14.00"> &#160;Exports</text>
<g id="clust1" class="cluster">
<title>cluster_AppModule</title>
<polygon fill="none" stroke="black" stroke-dasharray="1,5" points="8,-70 8,-268 3775,-268 3775,-70 8,-70"/>
</g>
<g id="clust7" class="cluster">
<title>cluster_AppModule_providers</title>
<polygon fill="none" stroke="black" points="3597,-78 3597,-130 3767,-130 3767,-78 3597,-78"/>
</g>
<g id="clust2" class="cluster">
<title>cluster_AppModule_declarations</title>
<polygon fill="none" stroke="black" points="3467,-78 3467,-130 3589,-130 3589,-78 3467,-78"/>
</g>
<g id="clust4" class="cluster">
<title>cluster_AppModule_imports</title>
<polygon fill="none" stroke="black" points="16,-78 16,-130 3459,-130 3459,-78 16,-78"/>
</g>
<g id="clust6" class="cluster">
<title>cluster_AppModule_bootstrap</title>
<polygon fill="none" stroke="black" points="1838,-208 1838,-260 1962,-260 1962,-208 1838,-208"/>
</g>
<!-- AppComponent -->
<g id="node1" class="node">
<title>AppComponent</title>
<polygon fill="#ffffb3" stroke="black" points="3580.94,-122 3475.06,-122 3475.06,-86 3580.94,-86 3580.94,-122"/>
<text text-anchor="middle" x="3528" y="-99.8" font-family="Times,serif" font-size="14.00">AppComponent</text>
</g>
<!-- AppModule -->
<g id="node2" class="node">
<title>AppModule</title>
<polygon fill="#8dd3c7" stroke="black" points="1941.66,-187 1938.66,-191 1917.66,-191 1914.66,-187 1858.34,-187 1858.34,-151 1941.66,-151 1941.66,-187"/>
<text text-anchor="middle" x="1900" y="-164.8" font-family="Times,serif" font-size="14.00">AppModule</text>
</g>
<!-- AppComponent&#45;&gt;AppModule -->
<g id="edge1" class="edge">
<title>AppComponent&#45;&gt;AppModule</title>
<path fill="none" stroke="black" d="M3528,-122.09C3528,-145.13 3528,-182 3528,-182 3528,-182 1951.88,-182 1951.88,-182"/>
<polygon fill="black" stroke="black" points="1951.88,-178.5 1941.88,-182 1951.88,-185.5 1951.88,-178.5"/>
</g>
<!-- AppComponent  -->
<g id="node26" class="node">
<title>AppComponent </title>
<polygon fill="#80b1d3" stroke="black" points="1954.44,-252 1845.56,-252 1845.56,-216 1954.44,-216 1954.44,-252"/>
<text text-anchor="middle" x="1900" y="-229.8" font-family="Times,serif" font-size="14.00">AppComponent </text>
</g>
<!-- AppModule&#45;&gt;AppComponent  -->
<g id="edge25" class="edge">
<title>AppModule&#45;&gt;AppComponent </title>
<path fill="none" stroke="black" stroke-dasharray="1,5" d="M1900,-187.11C1900,-187.11 1900,-205.99 1900,-205.99"/>
<polygon fill="black" stroke="black" points="1896.5,-205.99 1900,-215.99 1903.5,-205.99 1896.5,-205.99"/>
</g>
<!-- AdminModule -->
<g id="node3" class="node">
<title>AdminModule</title>
<polygon fill="#8dd3c7" stroke="black" points="3451.44,-122 3448.44,-126 3427.44,-126 3424.44,-122 3352.56,-122 3352.56,-86 3451.44,-86 3451.44,-122"/>
<text text-anchor="middle" x="3402" y="-99.8" font-family="Times,serif" font-size="14.00">AdminModule</text>
</g>
<!-- AdminModule&#45;&gt;AppModule -->
<g id="edge2" class="edge">
<title>AdminModule&#45;&gt;AppModule</title>
<path fill="none" stroke="black" d="M3402,-122.16C3402,-144.35 3402,-179 3402,-179 3402,-179 1951.74,-179 1951.74,-179"/>
<polygon fill="black" stroke="black" points="1951.74,-175.5 1941.74,-179 1951.74,-182.5 1951.74,-175.5"/>
</g>
<!-- AttendanceModule -->
<g id="node4" class="node">
<title>AttendanceModule</title>
<polygon fill="#8dd3c7" stroke="black" points="3334.8,-122 3331.8,-126 3310.8,-126 3307.8,-122 3211.2,-122 3211.2,-86 3334.8,-86 3334.8,-122"/>
<text text-anchor="middle" x="3273" y="-99.8" font-family="Times,serif" font-size="14.00">AttendanceModule</text>
</g>
<!-- AttendanceModule&#45;&gt;AppModule -->
<g id="edge3" class="edge">
<title>AttendanceModule&#45;&gt;AppModule</title>
<path fill="none" stroke="black" d="M3273,-122.17C3273,-143.5 3273,-176 3273,-176 3273,-176 1951.84,-176 1951.84,-176"/>
<polygon fill="black" stroke="black" points="1951.84,-172.5 1941.84,-176 1951.84,-179.5 1951.84,-172.5"/>
</g>
<!-- BirthdayDashboardWidgetModule -->
<g id="node5" class="node">
<title>BirthdayDashboardWidgetModule</title>
<polygon fill="#8dd3c7" stroke="black" points="3193.39,-122 3190.39,-126 3169.39,-126 3166.39,-122 2982.61,-122 2982.61,-86 3193.39,-86 3193.39,-122"/>
<text text-anchor="middle" x="3088" y="-99.8" font-family="Times,serif" font-size="14.00">BirthdayDashboardWidgetModule</text>
</g>
<!-- BirthdayDashboardWidgetModule&#45;&gt;AppModule -->
<g id="edge4" class="edge">
<title>BirthdayDashboardWidgetModule&#45;&gt;AppModule</title>
<path fill="none" stroke="black" d="M3088,-122.03C3088,-142.77 3088,-174 3088,-174 3088,-174 1951.93,-174 1951.93,-174"/>
<polygon fill="black" stroke="black" points="1951.93,-170.5 1941.93,-174 1951.93,-177.5 1951.93,-170.5"/>
</g>
<!-- ChildrenModule -->
<g id="node6" class="node">
<title>ChildrenModule</title>
<polygon fill="#8dd3c7" stroke="black" points="2965.04,-122 2962.04,-126 2941.04,-126 2938.04,-122 2856.96,-122 2856.96,-86 2965.04,-86 2965.04,-122"/>
<text text-anchor="middle" x="2911" y="-99.8" font-family="Times,serif" font-size="14.00">ChildrenModule</text>
</g>
<!-- ChildrenModule&#45;&gt;AppModule -->
<g id="edge5" class="edge">
<title>ChildrenModule&#45;&gt;AppModule</title>
<path fill="none" stroke="black" d="M2911,-122.31C2911,-142.15 2911,-171 2911,-171 2911,-171 1951.84,-171 1951.84,-171"/>
<polygon fill="black" stroke="black" points="1951.84,-167.5 1941.84,-171 1951.84,-174.5 1951.84,-167.5"/>
</g>
<!-- ConfigurableEnumModule -->
<g id="node7" class="node">
<title>ConfigurableEnumModule</title>
<polygon fill="#8dd3c7" stroke="black" points="2838.36,-122 2835.36,-126 2814.36,-126 2811.36,-122 2671.64,-122 2671.64,-86 2838.36,-86 2838.36,-122"/>
<text text-anchor="middle" x="2755" y="-99.8" font-family="Times,serif" font-size="14.00">ConfigurableEnumModule</text>
</g>
<!-- ConfigurableEnumModule&#45;&gt;AppModule -->
<g id="edge6" class="edge">
<title>ConfigurableEnumModule&#45;&gt;AppModule</title>
<path fill="none" stroke="black" d="M2755,-122.17C2755,-141.09 2755,-168 2755,-168 2755,-168 1951.82,-168 1951.82,-168"/>
<polygon fill="black" stroke="black" points="1951.82,-164.5 1941.82,-168 1951.82,-171.5 1951.82,-164.5"/>
</g>
<!-- CoreModule -->
<g id="node8" class="node">
<title>CoreModule</title>
<polygon fill="#8dd3c7" stroke="black" points="2653.26,-122 2650.26,-126 2629.26,-126 2626.26,-122 2566.74,-122 2566.74,-86 2653.26,-86 2653.26,-122"/>
<text text-anchor="middle" x="2610" y="-99.8" font-family="Times,serif" font-size="14.00">CoreModule</text>
</g>
<!-- CoreModule&#45;&gt;AppModule -->
<g id="edge7" class="edge">
<title>CoreModule&#45;&gt;AppModule</title>
<path fill="none" stroke="black" d="M2610,-122.3C2610,-140.27 2610,-165 2610,-165 2610,-165 1951.76,-165 1951.76,-165"/>
<polygon fill="black" stroke="black" points="1951.76,-161.5 1941.76,-165 1951.76,-168.5 1951.76,-161.5"/>
</g>
<!-- DatabaseModule -->
<g id="node9" class="node">
<title>DatabaseModule</title>
<polygon fill="#8dd3c7" stroke="black" points="2548.35,-122 2545.35,-126 2524.35,-126 2521.35,-122 2437.65,-122 2437.65,-86 2548.35,-86 2548.35,-122"/>
<text text-anchor="middle" x="2493" y="-99.8" font-family="Times,serif" font-size="14.00">DatabaseModule</text>
</g>
<!-- DatabaseModule&#45;&gt;AppModule -->
<g id="edge8" class="edge">
<title>DatabaseModule&#45;&gt;AppModule</title>
<path fill="none" stroke="black" d="M2493,-122.02C2493,-139.37 2493,-163 2493,-163 2493,-163 1951.7,-163 1951.7,-163"/>
<polygon fill="black" stroke="black" points="1951.7,-159.5 1941.7,-163 1951.7,-166.5 1951.7,-159.5"/>
</g>
<!-- EntityCountDashboardWidgetModule -->
<g id="node10" class="node">
<title>EntityCountDashboardWidgetModule</title>
<polygon fill="#8dd3c7" stroke="black" points="2419.85,-122 2416.85,-126 2395.85,-126 2392.85,-122 2190.15,-122 2190.15,-86 2419.85,-86 2419.85,-122"/>
<text text-anchor="middle" x="2305" y="-99.8" font-family="Times,serif" font-size="14.00">EntityCountDashboardWidgetModule</text>
</g>
<!-- EntityCountDashboardWidgetModule&#45;&gt;AppModule -->
<g id="edge9" class="edge">
<title>EntityCountDashboardWidgetModule&#45;&gt;AppModule</title>
<path fill="none" stroke="black" d="M2305,-122.03C2305,-138.4 2305,-160 2305,-160 2305,-160 1951.82,-160 1951.82,-160"/>
<polygon fill="black" stroke="black" points="1951.82,-156.5 1941.82,-160 1951.82,-163.5 1951.82,-156.5"/>
</g>
<!-- FileModule -->
<g id="node11" class="node">
<title>FileModule</title>
<polygon fill="#8dd3c7" stroke="black" points="2171.83,-122 2168.83,-126 2147.83,-126 2144.83,-122 2090.17,-122 2090.17,-86 2171.83,-86 2171.83,-122"/>
<text text-anchor="middle" x="2131" y="-99.8" font-family="Times,serif" font-size="14.00">FileModule</text>
</g>
<!-- FileModule&#45;&gt;AppModule -->
<g id="edge10" class="edge">
<title>FileModule&#45;&gt;AppModule</title>
<path fill="none" stroke="black" d="M2131,-122.24C2131,-137.57 2131,-157 2131,-157 2131,-157 1951.83,-157 1951.83,-157"/>
<polygon fill="black" stroke="black" points="1951.83,-153.5 1941.83,-157 1951.83,-160.5 1951.83,-153.5"/>
</g>
<!-- ImportModule -->
<g id="node12" class="node">
<title>ImportModule</title>
<polygon fill="#8dd3c7" stroke="black" points="2072.65,-122 2069.65,-126 2048.65,-126 2045.65,-122 1975.35,-122 1975.35,-86 2072.65,-86 2072.65,-122"/>
<text text-anchor="middle" x="2024" y="-99.8" font-family="Times,serif" font-size="14.00">ImportModule</text>
</g>
<!-- ImportModule&#45;&gt;AppModule -->
<g id="edge11" class="edge">
<title>ImportModule&#45;&gt;AppModule</title>
<path fill="none" stroke="black" d="M2024,-122.05C2024,-136.37 2024,-154 2024,-154 2024,-154 1951.98,-154 1951.98,-154"/>
<polygon fill="black" stroke="black" points="1951.98,-150.5 1941.98,-154 1951.98,-157.5 1951.98,-150.5"/>
</g>
<!-- LanguageModule -->
<g id="node13" class="node">
<title>LanguageModule</title>
<polygon fill="#8dd3c7" stroke="black" points="1957.25,-122 1954.25,-126 1933.25,-126 1930.25,-122 1842.75,-122 1842.75,-86 1957.25,-86 1957.25,-122"/>
<text text-anchor="middle" x="1900" y="-99.8" font-family="Times,serif" font-size="14.00">LanguageModule</text>
</g>
<!-- LanguageModule&#45;&gt;AppModule -->
<g id="edge12" class="edge">
<title>LanguageModule&#45;&gt;AppModule</title>
<path fill="none" stroke="black" d="M1900,-122.11C1900,-122.11 1900,-140.99 1900,-140.99"/>
<polygon fill="black" stroke="black" points="1896.5,-140.99 1900,-150.99 1903.5,-140.99 1896.5,-140.99"/>
</g>
<!-- LatestChangesModule -->
<g id="node14" class="node">
<title>LatestChangesModule</title>
<polygon fill="#8dd3c7" stroke="black" points="1824.97,-122 1821.97,-126 1800.97,-126 1797.97,-122 1683.03,-122 1683.03,-86 1824.97,-86 1824.97,-122"/>
<text text-anchor="middle" x="1754" y="-99.8" font-family="Times,serif" font-size="14.00">LatestChangesModule</text>
</g>
<!-- LatestChangesModule&#45;&gt;AppModule -->
<g id="edge13" class="edge">
<title>LatestChangesModule&#45;&gt;AppModule</title>
<path fill="none" stroke="black" d="M1754,-122.05C1754,-136.37 1754,-154 1754,-154 1754,-154 1848.16,-154 1848.16,-154"/>
<polygon fill="black" stroke="black" points="1848.16,-157.5 1858.16,-154 1848.16,-150.5 1848.16,-157.5"/>
</g>
<!-- LocationModule -->
<g id="node15" class="node">
<title>LocationModule</title>
<polygon fill="#8dd3c7" stroke="black" points="1664.81,-122 1661.81,-126 1640.81,-126 1637.81,-122 1555.19,-122 1555.19,-86 1664.81,-86 1664.81,-122"/>
<text text-anchor="middle" x="1610" y="-99.8" font-family="Times,serif" font-size="14.00">LocationModule</text>
</g>
<!-- LocationModule&#45;&gt;AppModule -->
<g id="edge14" class="edge">
<title>LocationModule&#45;&gt;AppModule</title>
<path fill="none" stroke="black" d="M1610,-122.24C1610,-137.57 1610,-157 1610,-157 1610,-157 1848.14,-157 1848.14,-157"/>
<polygon fill="black" stroke="black" points="1848.14,-160.5 1858.14,-157 1848.14,-153.5 1848.14,-160.5"/>
</g>
<!-- MarkdownPageModule -->
<g id="node16" class="node">
<title>MarkdownPageModule</title>
<polygon fill="#8dd3c7" stroke="black" points="1537.19,-122 1534.19,-126 1513.19,-126 1510.19,-122 1388.81,-122 1388.81,-86 1537.19,-86 1537.19,-122"/>
<text text-anchor="middle" x="1463" y="-99.8" font-family="Times,serif" font-size="14.00">MarkdownPageModule</text>
</g>
<!-- MarkdownPageModule&#45;&gt;AppModule -->
<g id="edge15" class="edge">
<title>MarkdownPageModule&#45;&gt;AppModule</title>
<path fill="none" stroke="black" d="M1463,-122.03C1463,-138.4 1463,-160 1463,-160 1463,-160 1848.1,-160 1848.1,-160"/>
<polygon fill="black" stroke="black" points="1848.1,-163.5 1858.1,-160 1848.1,-156.5 1848.1,-163.5"/>
</g>
<!-- MatchingEntitiesModule -->
<g id="node17" class="node">
<title>MatchingEntitiesModule</title>
<polygon fill="#8dd3c7" stroke="black" points="1370.98,-122 1367.98,-126 1346.98,-126 1343.98,-122 1215.02,-122 1215.02,-86 1370.98,-86 1370.98,-122"/>
<text text-anchor="middle" x="1293" y="-99.8" font-family="Times,serif" font-size="14.00">MatchingEntitiesModule</text>
</g>
<!-- MatchingEntitiesModule&#45;&gt;AppModule -->
<g id="edge16" class="edge">
<title>MatchingEntitiesModule&#45;&gt;AppModule</title>
<path fill="none" stroke="black" d="M1293,-122.02C1293,-139.37 1293,-163 1293,-163 1293,-163 1848.28,-163 1848.28,-163"/>
<polygon fill="black" stroke="black" points="1848.28,-166.5 1858.28,-163 1848.28,-159.5 1848.28,-166.5"/>
</g>
<!-- NotesModule -->
<g id="node18" class="node">
<title>NotesModule</title>
<polygon fill="#8dd3c7" stroke="black" points="1197.21,-122 1194.21,-126 1173.21,-126 1170.21,-122 1104.79,-122 1104.79,-86 1197.21,-86 1197.21,-122"/>
<text text-anchor="middle" x="1151" y="-99.8" font-family="Times,serif" font-size="14.00">NotesModule</text>
</g>
<!-- NotesModule&#45;&gt;AppModule -->
<g id="edge17" class="edge">
<title>NotesModule&#45;&gt;AppModule</title>
<path fill="none" stroke="black" d="M1151,-122.3C1151,-140.27 1151,-165 1151,-165 1151,-165 1848.13,-165 1848.13,-165"/>
<polygon fill="black" stroke="black" points="1848.13,-168.5 1858.13,-165 1848.13,-161.5 1848.13,-168.5"/>
</g>
<!-- PermissionsModule -->
<g id="node19" class="node">
<title>PermissionsModule</title>
<polygon fill="#8dd3c7" stroke="black" points="1086.71,-122 1083.71,-126 1062.71,-126 1059.71,-122 959.29,-122 959.29,-86 1086.71,-86 1086.71,-122"/>
<text text-anchor="middle" x="1023" y="-99.8" font-family="Times,serif" font-size="14.00">PermissionsModule</text>
</g>
<!-- PermissionsModule&#45;&gt;AppModule -->
<g id="edge18" class="edge">
<title>PermissionsModule&#45;&gt;AppModule</title>
<path fill="none" stroke="black" d="M1023,-122.17C1023,-141.09 1023,-168 1023,-168 1023,-168 1848.29,-168 1848.29,-168"/>
<polygon fill="black" stroke="black" points="1848.29,-171.5 1858.29,-168 1848.29,-164.5 1848.29,-171.5"/>
</g>
<!-- ProgressDashboardWidgetModule -->
<g id="node20" class="node">
<title>ProgressDashboardWidgetModule</title>
<polygon fill="#8dd3c7" stroke="black" points="941.61,-122 938.61,-126 917.61,-126 914.61,-122 732.39,-122 732.39,-86 941.61,-86 941.61,-122"/>
<text text-anchor="middle" x="837" y="-99.8" font-family="Times,serif" font-size="14.00">ProgressDashboardWidgetModule</text>
</g>
<!-- ProgressDashboardWidgetModule&#45;&gt;AppModule -->
<g id="edge19" class="edge">
<title>ProgressDashboardWidgetModule&#45;&gt;AppModule</title>
<path fill="none" stroke="black" d="M837,-122.31C837,-142.15 837,-171 837,-171 837,-171 1848.33,-171 1848.33,-171"/>
<polygon fill="black" stroke="black" points="1848.33,-174.5 1858.33,-171 1848.33,-167.5 1848.33,-174.5"/>
</g>
<!-- ReportingModule -->
<g id="node21" class="node">
<title>ReportingModule</title>
<polygon fill="#8dd3c7" stroke="black" points="713.54,-122 710.54,-126 689.54,-126 686.54,-122 598.46,-122 598.46,-86 713.54,-86 713.54,-122"/>
<text text-anchor="middle" x="656" y="-99.8" font-family="Times,serif" font-size="14.00">ReportingModule</text>
</g>
<!-- ReportingModule&#45;&gt;AppModule -->
<g id="edge20" class="edge">
<title>ReportingModule&#45;&gt;AppModule</title>
<path fill="none" stroke="black" d="M656,-122.03C656,-142.77 656,-174 656,-174 656,-174 1848.25,-174 1848.25,-174"/>
<polygon fill="black" stroke="black" points="1848.25,-177.5 1858.25,-174 1848.25,-170.5 1848.25,-177.5"/>
</g>
<!-- SessionModule -->
<g id="node22" class="node">
<title>SessionModule</title>
<polygon fill="#8dd3c7" stroke="black" points="580.33,-122 577.33,-126 556.33,-126 553.33,-122 477.67,-122 477.67,-86 580.33,-86 580.33,-122"/>
<text text-anchor="middle" x="529" y="-99.8" font-family="Times,serif" font-size="14.00">SessionModule</text>
</g>
<!-- SessionModule&#45;&gt;AppModule -->
<g id="edge21" class="edge">
<title>SessionModule&#45;&gt;AppModule</title>
<path fill="none" stroke="black" d="M529,-122.17C529,-143.5 529,-176 529,-176 529,-176 1848.22,-176 1848.22,-176"/>
<polygon fill="black" stroke="black" points="1848.22,-179.5 1858.22,-176 1848.22,-172.5 1848.22,-179.5"/>
</g>
<!-- ShortcutDashboardWidgetModule -->
<g id="node23" class="node">
<title>ShortcutDashboardWidgetModule</title>
<polygon fill="#8dd3c7" stroke="black" points="459.34,-122 456.34,-126 435.34,-126 432.34,-122 250.66,-122 250.66,-86 459.34,-86 459.34,-122"/>
<text text-anchor="middle" x="355" y="-99.8" font-family="Times,serif" font-size="14.00">ShortcutDashboardWidgetModule</text>
</g>
<!-- ShortcutDashboardWidgetModule&#45;&gt;AppModule -->
<g id="edge22" class="edge">
<title>ShortcutDashboardWidgetModule&#45;&gt;AppModule</title>
<path fill="none" stroke="black" d="M355,-122.16C355,-144.35 355,-179 355,-179 355,-179 1848.28,-179 1848.28,-179"/>
<polygon fill="black" stroke="black" points="1848.28,-182.5 1858.28,-179 1848.28,-175.5 1848.28,-182.5"/>
</g>
<!-- TodosModule -->
<g id="node24" class="node">
<title>TodosModule</title>
<polygon fill="#8dd3c7" stroke="black" points="232.05,-122 229.05,-126 208.05,-126 205.05,-122 137.95,-122 137.95,-86 232.05,-86 232.05,-122"/>
<text text-anchor="middle" x="185" y="-99.8" font-family="Times,serif" font-size="14.00">TodosModule</text>
</g>
<!-- TodosModule&#45;&gt;AppModule -->
<g id="edge23" class="edge">
<title>TodosModule&#45;&gt;AppModule</title>
<path fill="none" stroke="black" d="M185,-122.09C185,-145.13 185,-182 185,-182 185,-182 1848.03,-182 1848.03,-182"/>
<polygon fill="black" stroke="black" points="1848.03,-185.5 1858.03,-182 1848.03,-178.5 1848.03,-185.5"/>
</g>
<!-- UiComponent -->
<g id="node25" class="node">
<title>UiComponent</title>
<polygon fill="#8dd3c7" stroke="black" points="119.83,-122 116.83,-126 95.83,-126 92.83,-122 24.17,-122 24.17,-86 119.83,-86 119.83,-122"/>
<text text-anchor="middle" x="72" y="-99.8" font-family="Times,serif" font-size="14.00">UiComponent</text>
</g>
<!-- UiComponent&#45;&gt;AppModule -->
<g id="edge24" class="edge">
<title>UiComponent&#45;&gt;AppModule</title>
<path fill="none" stroke="black" d="M72,-122.38C72,-146.28 72,-185 72,-185 72,-185 1847.95,-185 1847.95,-185"/>
<polygon fill="black" stroke="black" points="1847.95,-188.5 1857.95,-185 1847.95,-181.5 1847.95,-188.5"/>
</g>
<!-- AnalyticsService -->
<g id="node27" class="node">
<title>AnalyticsService</title>
<ellipse fill="#fdb462" stroke="black" cx="3682" cy="-104" rx="77" ry="18"/>
<text text-anchor="middle" x="3682" y="-99.8" font-family="Times,serif" font-size="14.00">AnalyticsService</text>
</g>
<!-- AnalyticsService&#45;&gt;AppModule -->
<g id="edge26" class="edge">
<title>AnalyticsService&#45;&gt;AppModule</title>
<path fill="none" stroke="black" d="M3682,-122.38C3682,-146.28 3682,-185 3682,-185 3682,-185 1951.86,-185 1951.86,-185"/>
<polygon fill="black" stroke="black" points="1951.86,-181.5 1941.86,-185 1951.86,-188.5 1951.86,-181.5"/>
</g>
</g>
</svg>
